<svg width="16" height="15" viewBox="0 0 16 15" fill="none" xmlns="http://www.w3.org/2000/svg">
<g clip-path="url(#clip0_1_841)">
<path d="M1.21001 12.2511L1.91557 13.4697C2.06219 13.7263 2.27292 13.9279 2.52033 14.0745C3.22902 13.175 3.72223 12.4847 4.00021 12.0037C4.28225 11.5155 4.6289 10.7519 5.04018 9.71292C3.93178 9.567 3.09185 9.49406 2.5204 9.49406C1.97188 9.49406 1.13195 9.567 0.000488281 9.71292C0.000488281 9.99696 0.0737945 10.281 0.220407 10.5376L1.21001 12.2511Z" fill="#0066DA"/>
<path d="M13.4794 14.0745C13.7269 13.9279 13.9376 13.7263 14.0842 13.4698L14.3774 12.9658L15.7794 10.5376C15.9233 10.2866 15.9991 10.0023 15.9993 9.71292C14.8612 9.567 14.0229 9.49406 13.484 9.49406C12.905 9.49406 12.0665 9.567 10.9688 9.71292C11.3752 10.7576 11.7172 11.5212 11.995 12.0037C12.2752 12.4904 12.77 13.1807 13.4794 14.0745Z" fill="#EA4335"/>
<path d="M7.99983 4.58154C8.81976 3.59132 9.38483 2.82769 9.69499 2.2908C9.94478 1.85847 10.2197 1.16815 10.5197 0.219919C10.2723 0.0733062 9.98822 0 9.69499 0H6.30466C6.01143 0 5.72746 0.0824929 5.47998 0.219919C5.86157 1.30745 6.18542 2.08145 6.4514 2.54184C6.74537 3.05068 7.26152 3.73055 7.99983 4.58154Z" fill="#00832D"/>
<path d="M10.9597 9.71292H5.04029L2.52051 14.0745C2.76786 14.2212 3.0519 14.2945 3.34512 14.2945H12.6548C12.948 14.2945 13.2322 14.212 13.4795 14.0745L10.9597 9.71292H10.9597Z" fill="#2684FC"/>
<path d="M7.99986 4.58155L5.48008 0.219986C5.2326 0.366598 5.02187 0.568144 4.87526 0.824746L0.220407 8.88824C0.0764896 9.13927 0.000678419 9.42356 0.000488281 9.71292H5.04018L7.99986 4.58155Z" fill="#00AC47"/>
<path d="M13.452 4.85646L11.1245 0.824685C10.978 0.568082 10.7672 0.366537 10.5198 0.219925L8 4.58155L10.9596 9.71292H15.9902C15.9902 9.42882 15.9169 9.14485 15.7703 8.88824L13.452 4.85646Z" fill="#FFBA00"/>
</g>
<defs>
<clipPath id="clip0_1_841">
<rect width="16" height="14.3113" fill="white"/>
</clipPath>
</defs>
</svg>
