<svg width="16" height="16" viewBox="0 0 16 16" fill="none" xmlns="http://www.w3.org/2000/svg">
<g clip-path="url(#clip0_1_880)">
<path d="M4 3.63431C6.208 3.63431 8 5.42631 8 7.63431V8H0.365687C0.164562 8 0 7.83543 0 7.63431C0 5.42631 1.792 3.63431 4 3.63431Z" fill="#FBBB05"/>
<path d="M12.3657 4C12.3657 6.208 10.5737 8 8.36569 8H8V0.365687C8 0.164562 8.16456 0 8.36569 0C10.5737 0 12.3657 1.792 12.3657 4Z" fill="#E94335"/>
<path d="M12 12.3657C9.792 12.3657 8 10.5737 8 8.36569V8H15.6343C15.8354 8 16 8.16456 16 8.36569C16 10.5737 14.208 12.3657 12 12.3657Z" fill="#4285F4"/>
<path d="M3.63428 12C3.63428 9.792 5.42628 8 7.63428 8H7.99996V15.6343C7.99996 15.8354 7.8354 16 7.63428 16C5.42628 16 3.63428 14.208 3.63428 12Z" fill="#0F9D58"/>
</g>
<defs>
<clipPath id="clip0_1_880">
<rect width="16" height="16" fill="white"/>
</clipPath>
</defs>
</svg>
