<svg width="21" height="20" viewBox="0 0 21 20" fill="none" xmlns="http://www.w3.org/2000/svg">
<path d="M10.5 1.57422C8.26585 1.57422 6.12123 2.46248 4.54271 4.04205C2.96256 5.62225 2.07466 7.7653 2.07422 10C2.07422 12.2338 2.96288 14.3784 4.54271 15.9579C6.12123 17.5375 8.26585 18.4258 10.5 18.4258C12.7341 18.4258 14.8788 17.5375 16.4573 15.9579C18.0371 14.3784 18.9258 12.2338 18.9258 10C18.9258 7.76625 18.0371 5.62162 16.4573 4.04205C14.8788 2.46248 12.7341 1.57422 10.5 1.57422Z" fill="url(#paint0_linear_212_12)"/>
<path d="M5.88747 9.91082C8.34411 8.84075 9.98187 8.13522 10.8008 7.79437C13.1415 6.82106 13.6273 6.65202 13.9446 6.64629C14.0144 6.64517 14.1697 6.66242 14.2711 6.74437C14.3554 6.81349 14.3791 6.90696 14.3909 6.97259C14.4015 7.03815 14.4159 7.18758 14.4041 7.30423C14.2777 8.63655 13.7287 11.8697 13.4496 13.362C13.3324 13.9934 13.0994 14.2051 12.8743 14.2257C12.3845 14.2708 12.0133 13.9024 11.5393 13.5918C10.7981 13.1056 10.3795 12.8031 9.65932 12.3288C8.82727 11.7806 9.36705 11.4792 9.841 10.9868C9.96476 10.8579 12.1212 8.89696 12.162 8.7191C12.1673 8.69685 12.1726 8.61391 12.1225 8.5702C12.0738 8.52636 12.0014 8.54137 11.9488 8.55322C11.8737 8.57007 10.6902 9.35314 8.39414 10.9023C8.05842 11.1332 7.7543 11.2458 7.48047 11.2399C7.1803 11.2334 6.60103 11.0698 6.17052 10.9299C5.64391 10.7584 5.22394 10.6677 5.2608 10.3763C5.27923 10.2247 5.48856 10.0695 5.88747 9.91082Z" fill="white"/>
<defs>
<linearGradient id="paint0_linear_212_12" x1="844.652" y1="1.57422" x2="844.652" y2="1686.73" gradientUnits="userSpaceOnUse">
<stop stop-color="#2AABEE"/>
<stop offset="1" stop-color="#229ED9"/>
</linearGradient>
</defs>
</svg>
